<?xml version="1.0" encoding="UTF-8"?>
<svg xmlns="http://www.w3.org/2000/svg" viewBox="0 0 512 533" width="512" height="533">
<path d="M364.45 392.88C360.23 393.58 355.51 398.43 351.75 400.6C343.97 405.11 335.95 409.31 327.66 412.75C315.82 417.67 303.22 421.6 290.56 423.8C284.5 424.85 277.93 424.92 272.01 426.43C272.01 437.23 272.01 448.04 272.01 458.85C284.12 459.69 296.54 458.94 308.68 458.94C314.35 458.94 320.86 458.02 326.22 460.16C335.51 463.88 338.91 476.33 332.94 484.27C325.54 494.12 310.38 490.94 299.62 490.94C270.06 490.94 240.51 490.94 210.95 490.94C199.61 490.94 182.96 494.18 177.3 481.27C173.25 472.01 178.99 462 188.3 459.33C192.96 457.99 198.97 458.94 203.8 458.94C215.78 458.94 228.04 459.68 239.99 458.85C239.99 448.04 239.99 437.23 239.99 426.43C234.06 424.91 227.5 424.91 221.44 423.81C210.52 421.83 199.43 418.73 189.12 414.65C137.78 394.35 95.75 351.94 78.83 299.01C73.77 283.2 71.12 267.54 69.72 250.99C68.97 242.22 68.35 232.91 76.31 227.21C85.16 220.88 97.7 226.03 100.77 236.06C101.85 239.6 101.32 243.99 101.53 247.66C101.97 255.31 102.58 263.14 104.23 270.63C110.29 298.16 122.63 324.15 142.06 344.9C181.49 387.01 237.88 403.63 294.02 390.15C306.47 387.17 318.54 382.42 329.76 376.23C333.06 374.41 338.66 372.33 340.77 369.22C333.09 361.68 325.41 354.14 317.74 346.6C311.73 348.67 306.2 352.52 300.2 354.82C288.12 359.47 274.96 362.41 261.96 362.9C199.61 365.26 147.19 322.92 135.2 262.08C131.03 240.89 133.26 212.01 133.26 189.97C133.26 183.3 133.26 176.63 133.26 169.95C133.26 167.48 133.95 163.77 132.9 161.47C131.62 158.69 127.49 155.95 125.33 153.78C119.33 147.71 113.27 141.69 107.22 135.66C86.6 115.14 65.8 94.76 45.47 73.95C37.48 65.77 22.54 56.09 27.81 42.8C29 39.79 30.94 37.13 33.68 35.32C47.79 26 59.2 42.58 68.07 51.35C94.3 77.23 120.13 103.53 146.28 129.5C234.52 217.15 322.1 305.51 410.26 393.26C430.8 413.71 451.1 434.41 471.79 454.72C479.68 462.48 490.49 471.92 482.62 483.83C480.55 486.97 477.26 489.2 473.71 490.21C461.86 493.58 453.84 482.2 446.51 474.77C428.91 456.93 411.07 439.31 393.32 421.62C383.79 412.12 374.7 401.59 364.45 392.88ZM255.34 32.64C310.49 31.61 361.48 71.23 374.87 124.58C381.49 150.96 378.74 179.65 378.74 206.66C378.74 232.34 380.07 257.88 371.21 282.33C368.38 290.16 365.24 300.8 356.53 303.86C345.33 307.81 333.8 298.55 335.12 286.75C335.67 281.91 338.97 277.29 340.73 272.82C343.19 266.58 344.59 259.99 345.77 253.4C348.5 238.08 346.74 217.31 346.74 201.42C346.74 166.91 351.06 131.91 329.74 102.39C303.64 66.25 252.69 53.64 213.25 75.23C202.59 81.06 193.01 88.86 185.35 98.35C181.16 103.54 178.29 110.97 172.74 114.84C165.97 119.55 156.39 118.01 151.23 111.68C141.38 99.61 155.13 84.55 162.88 75.43C186.05 48.21 219.85 33.31 255.34 32.64ZM165.66 194.46C163.86 200.38 165.26 217.63 165.26 224.77C165.26 240.17 165.16 255.33 170.25 270.02C182.71 306.02 217.67 330.92 255.76 330.99C267.23 331.01 284.11 328.84 293.93 322.5C251.17 279.82 208.42 237.14 165.66 194.46ZM424.15 224.71C433.43 223.15 441.28 229.96 442.62 238.92C443.4 244.18 442.3 249.99 442.04 255.28C440.69 282.4 431.33 309.16 418.23 332.64C412.87 342.24 406.31 354.5 393.08 350.84C385.1 348.63 379.99 339.47 382.17 331.46C383.5 326.59 387.27 322.36 389.77 318.05C393.59 311.5 396.98 304.6 399.79 297.57C404.87 284.85 408.22 271.24 409.78 257.59C410.5 251.29 410.34 244.91 410.87 238.6C411.47 231.45 417.23 225.88 424.15 224.71Z" fill="#000000" fill-rule="evenodd" stroke="#000000" stroke-width="8" stroke-linejoin="round"/>
</svg>